<?xml version="1.0" encoding="UTF-8"?>
<svg xmlns="http://www.w3.org/2000/svg" xmlns:xlink="http://www.w3.org/1999/xlink" width="1280pt" height="500pt" viewBox="0 0 1280 500">
<defs>
<clipPath id="clip-0">
<path clip-rule="nonzero" d="M 281 176 L 325 176 L 325 219 L 281 219 Z M 281 176 "/>
</clipPath>
</defs>
<path fill-rule="nonzero" fill="rgb(79.219055%, 85.099792%, 58.81958%)" fill-opacity="1" d="M 183.019531 163.414062 C 184.765625 161.355469 186.699219 158.609375 185.453125 156.179688 C 192.441406 152.0625 198.613281 146.632812 203.667969 140.269531 C 200.921875 142.453125 197.929688 144.199219 194.746094 145.574219 C 218.640625 121.992188 254.570312 111.261719 287.570312 117.875 C 260.996094 116.878906 233.921875 123.925781 211.964844 138.898438 C 189.945312 153.808594 173.226562 176.703125 166.800781 202.527344 C 176.53125 174.269531 197.054688 149.878906 223.253906 135.53125 C 221.195312 137.652344 219.136719 139.832031 217.015625 141.957031 C 227 137.839844 236.042969 131.664062 245.960938 127.359375 C 275.09375 114.632812 310.152344 119.433594 337.289062 136.03125 C 364.421875 152.621094 383.949219 179.820312 395.300781 209.511719 C 400.292969 222.488281 403.785156 236.898438 399.355469 250.0625 C 398.359375 232.90625 392.742188 216.375 385.445312 200.84375 C 373.34375 174.953125 356 150.6875 331.609375 135.84375 C 307.21875 121.058594 274.96875 117.128906 250.015625 131.039062 C 262.804688 129.667969 275.71875 128.917969 288.378906 130.726562 C 312.210938 134.09375 334.230469 146.570312 350.949219 163.851562 C 367.605469 181.191406 379.144531 203.089844 385.945312 226.105469 C 392.554688 248.625 394.738281 273.453125 386.253906 295.414062 C 411.019531 255.363281 406.902344 199.59375 376.648438 163.601562 C 363.984375 148.566406 347.582031 137.027344 329.863281 128.667969 C 309.402344 119.0625 286.945312 113.507812 264.363281 114.132812 C 241.78125 114.757812 219.199219 121.804688 201.171875 135.40625 C 216.144531 122.179688 235.667969 114.695312 255.507812 112.636719 C 275.40625 110.640625 295.554688 113.882812 314.457031 120.246094 C 353.757812 133.597656 389.5625 163.039062 401.101562 202.902344 C 404.035156 213.132812 405.34375 223.738281 406.53125 234.339844 C 407.527344 243.511719 408.339844 252.679688 408.152344 261.914062 C 407.277344 307.515625 378.148438 352.054688 335.664062 368.707031 C 323.625 373.386719 310.902344 375.945312 298.113281 377.753906 C 277.652344 380.625 256.441406 381.496094 236.730469 375.382812 C 226.5625 372.203125 217.078125 367.273438 208.285156 361.222656 C 171.851562 336.273438 148.835938 292.792969 148.835938 248.625 C 148.835938 240.765625 149.519531 232.96875 150.582031 225.234375 C 151.515625 218.121094 152.765625 211.074219 154.824219 204.210938 C 157.941406 194.105469 162.808594 184.5625 169.234375 176.140625 C 170.355469 175.453125 171.480469 174.707031 172.539062 173.957031 C 157.753906 205.210938 148.960938 242.140625 162.496094 274.015625 C 157.628906 253.242188 157.320312 231.472656 161.625 210.636719 C 162.996094 210.136719 164.367188 209.574219 165.675781 209.015625 C 165.738281 207.640625 165.800781 206.332031 165.863281 204.960938 C 164.867188 206.082031 163.929688 207.207031 162.933594 208.265625 C 165.242188 191.734375 172.351562 176.078125 183.019531 163.414062 M 193.0625 162.605469 L 204.664062 154.742188 C 202.234375 159.671875 197.742188 163.539062 192.5 165.285156 C 168.171875 190.425781 160.6875 227.917969 163.554688 262.722656 C 164.679688 275.886719 167.363281 289.546875 175.84375 299.652344 C 169.917969 275.324219 169.609375 249.625 175.035156 225.171875 C 176.09375 225.109375 176.46875 226.480469 176.46875 227.542969 C 176.90625 243.949219 174.097656 260.355469 175.285156 276.761719 C 176.46875 293.101562 182.582031 310.382812 196.304688 319.304688 C 207.035156 326.289062 217.703125 333.277344 228.371094 340.265625 C 203.417969 332.277344 181.648438 314.9375 168.171875 292.480469 C 171.792969 302.273438 176.84375 311.566406 183.082031 319.925781 C 182.269531 317.679688 181.523438 315.375 180.710938 313.066406 C 187.011719 318.992188 193.375 324.792969 199.675781 330.65625 C 204.292969 334.960938 211.527344 339.328125 216.269531 335.210938 C 217.015625 336.769531 215.644531 338.703125 213.960938 339.140625 C 212.277344 339.640625 210.46875 339.140625 208.78125 338.640625 C 216.332031 344.070312 224.191406 349.058594 232.300781 353.613281 C 231.117188 353.800781 230.742188 355.546875 231.488281 356.546875 C 232.238281 357.542969 233.484375 357.792969 234.671875 358.105469 C 264.425781 364.527344 296.117188 362.160156 324.5625 351.179688 C 300.109375 356.917969 274.035156 358.230469 250.328125 349.933594 C 230.304688 342.945312 212.773438 329.160156 201.296875 311.382812 C 197.617188 305.640625 194.558594 299.589844 191.753906 293.417969 C 182.707031 273.078125 176.96875 250.871094 178.589844 228.664062 C 180.210938 206.457031 189.945312 184.3125 207.410156 170.589844 C 209.21875 169.152344 211.464844 167.78125 213.710938 168.34375 C 196.492188 180.820312 186.261719 201.464844 183.582031 222.550781 C 180.898438 243.699219 185.265625 265.15625 192.9375 284.996094 C 198.425781 299.03125 205.726562 312.628906 215.769531 323.855469 C 220.074219 328.660156 224.941406 333.027344 230.492188 336.332031 C 240.660156 342.449219 252.699219 344.753906 264.488281 346.25 C 280.519531 348.3125 296.675781 349.183594 312.835938 348.808594 C 292.4375 353.613281 271.101562 350.183594 250.453125 346.75 C 285.511719 359.914062 326.621094 351.867188 356.75 329.722656 C 362.738281 325.292969 368.414062 320.363281 372.96875 314.4375 C 379.957031 305.332031 384.136719 294.226562 386.253906 282.933594 C 391.746094 253.492188 383.886719 222.738281 369.601562 196.351562 C 359.683594 178.011719 346.519531 161.042969 329.179688 149.503906 C 312.957031 138.773438 293.683594 133.097656 274.28125 132.035156 C 244.464844 130.289062 212.898438 140.144531 193.0625 162.605469 M 251.636719 365.214844 C 265.050781 368.585938 278.585938 371.019531 292.3125 372.640625 C 275.46875 376.507812 258.125 370.582031 241.84375 364.777344 C 232.238281 361.410156 222.507812 357.917969 213.585938 352.925781 C 192.003906 340.949219 175.785156 320.425781 166.363281 297.59375 C 164.742188 293.539062 163.246094 289.484375 161.996094 285.367188 C 161.871094 284.871094 161.5 286.054688 161.996094 285.804688 C 162.496094 285.617188 162.433594 284.871094 162.183594 284.371094 C 156.570312 270.832031 153.140625 256.300781 152.078125 241.703125 C 151.019531 263.785156 156.507812 285.992188 166.488281 305.765625 C 177.34375 327.289062 193.625 346.191406 214.085938 358.976562 C 234.484375 371.765625 259.0625 378.253906 283.015625 375.945312 C 316.703125 372.640625 346.269531 352.988281 373.40625 332.839844 C 361.429688 348.683594 343.277344 358.480469 325.621094 367.710938 C 356.125 359.164062 380.578125 335.023438 395.300781 306.953125 C 388.003906 319.429688 376.585938 329.222656 364.171875 336.582031 C 351.695312 343.945312 338.035156 349.058594 324.375 353.988281 C 318.386719 356.171875 312.335938 358.292969 306.160156 360.039062 C 288.507812 365.089844 269.914062 366.839844 251.636719 365.214844 M 376.402344 323.046875 C 379.519531 320.113281 382.578125 317.121094 385.070312 313.75 C 389 308.324219 391.621094 302.023438 394.117188 295.785156 C 397.484375 287.300781 400.914062 278.757812 401.789062 269.648438 C 400.167969 271.082031 399.605469 273.203125 398.980469 275.261719 C 390.683594 304.019531 370.160156 329.097656 343.523438 342.820312 C 356.0625 340.015625 366.855469 331.84375 376.398438 323.046875 M 223.941406 353.613281 C 225.25 353.925781 226.875 354.488281 226.9375 355.796875 C 227.433594 354.921875 228.933594 354.921875 229.492188 355.796875 C 229.742188 355.734375 229.554688 355.296875 229.242188 355.171875 C 227.371094 354.175781 225.5 353.175781 223.691406 352.179688 C 216.144531 348.125 209.21875 343.070312 203.042969 337.207031 C 202.296875 338.828125 202.855469 340.886719 204.292969 341.886719 L 212.527344 347.875 C 215.832031 350.617188 219.761719 352.613281 223.941406 353.613281 M 404.097656 259.292969 C 403.847656 263.910156 403.597656 268.589844 403.285156 273.203125 C 403.222656 273.828125 403.222656 274.453125 403.222656 275.074219 C 403.160156 276.199219 403.097656 277.320312 402.972656 278.382812 C 402.910156 279.753906 402.847656 281 402.847656 282.375 C 405.46875 271.769531 406.40625 260.667969 405.59375 249.8125 C 405.28125 249.6875 404.972656 249.5 404.722656 249.3125 C 404.535156 252.617188 404.285156 255.925781 404.097656 259.292969 M 161.625 190.925781 C 161.1875 191.734375 160.8125 192.546875 160.4375 193.355469 C 160.875 193.917969 161.6875 193.230469 161.875 192.546875 C 162.058594 191.921875 162.246094 191.046875 162.933594 190.988281 L 161.996094 190.050781 C 161.875 190.300781 161.746094 190.675781 161.875 190.925781 M 206.972656 139.148438 C 207.597656 138.648438 208.222656 138.148438 208.84375 137.589844 C 207.785156 137.152344 206.414062 137.714844 205.976562 138.835938 C 206.289062 138.960938 206.597656 139.085938 206.972656 139.148438 M 208.910156 136.214844 C 210.28125 136.527344 211.839844 136.152344 212.960938 135.21875 C 211.527344 135.15625 210.09375 135.46875 208.910156 136.214844 M 159.253906 199.53125 C 159.191406 199.21875 159.128906 198.910156 159.128906 198.660156 C 157.941406 199.097656 157.382812 200.71875 158.066406 201.777344 C 158.316406 200.96875 158.691406 200.21875 159.253906 199.53125 M 152.203125 231.347656 C 151.890625 231.785156 152.140625 232.53125 152.703125 232.59375 C 153.015625 231.597656 152.953125 230.535156 152.640625 229.476562 C 152.015625 229.785156 151.828125 230.660156 152.203125 231.222656 "/>
<path fill-rule="nonzero" fill="rgb(79.219055%, 85.099792%, 58.81958%)" fill-opacity="1" d="M 194.25 145.886719 C 194.375 146.070312 194.496094 146.320312 194.621094 146.507812 C 194.0625 147.320312 193 147.695312 192.066406 147.445312 C 192.5625 146.757812 193.3125 146.257812 194.125 146.074219 M 189.320312 149.878906 C 190.195312 149.566406 191.128906 149.378906 192.066406 149.441406 C 191.878906 150.8125 189.570312 151.1875 189.007812 149.878906 M 186.203125 147.007812 C 186.761719 146.136719 187.824219 145.511719 188.945312 145.636719 C 189.195312 146.257812 189.007812 147.007812 188.507812 147.445312 C 187.636719 147.570312 186.574219 147.695312 185.953125 147.007812 M 361.054688 151.125 C 361.429688 151.0625 361.800781 151.4375 361.742188 151.8125 C 361.679688 152.183594 361.242188 152.433594 360.867188 152.3125 C 360.304688 151.6875 359.746094 151 359.183594 150.316406 C 359.804688 149.816406 360.929688 150.25 361.054688 151 M 191.816406 141.894531 C 192.253906 141.394531 193.125 141.394531 193.625 141.828125 C 192.8125 142.640625 191.753906 143.203125 190.628906 143.578125 C 190.503906 142.890625 191.128906 142.078125 191.816406 142.144531 M 181.585938 199.90625 C 182.144531 199.097656 183.644531 199.40625 183.832031 200.40625 C 183.082031 200.28125 182.269531 200.53125 181.773438 201.09375 C 181.460938 201.214844 180.960938 200.96875 180.960938 200.59375 C 180.898438 200.28125 181.273438 199.90625 181.648438 199.96875 M 217.265625 159.984375 C 217.578125 159.859375 218.015625 159.734375 218.328125 159.859375 C 218.703125 159.984375 218.886719 160.542969 218.640625 160.792969 C 217.453125 161.542969 216.082031 161.980469 214.707031 162.042969 C 215.332031 161.167969 216.269531 160.480469 217.265625 159.984375 M 235.667969 354.921875 C 236.292969 355.359375 236.980469 355.796875 237.601562 356.234375 C 236.230469 356.792969 234.609375 356.484375 233.484375 355.484375 C 233.234375 355.046875 233.734375 354.421875 234.171875 354.421875 C 234.734375 354.363281 235.234375 354.671875 235.667969 354.921875 M 207.160156 154.246094 C 206.847656 153.308594 207.097656 152.183594 207.847656 151.5 C 208.347656 151.375 208.84375 151 209.03125 150.4375 C 209.84375 150.75 210.59375 151.0625 211.402344 151.375 C 210.03125 152.3125 208.59375 153.246094 207.160156 154.246094 M 176.71875 221.242188 L 176.71875 220.117188 C 177.34375 219.804688 178.027344 219.804688 178.589844 220.054688 C 177.46875 221.242188 176.84375 222.863281 176.96875 224.484375 C 176.28125 223.984375 175.535156 223.425781 174.785156 222.925781 C 175.410156 222.425781 176.09375 221.863281 176.78125 221.304688 M 172.601562 166.160156 C 172.851562 164.226562 173.976562 162.476562 175.535156 161.292969 C 175.972656 160.980469 176.65625 160.792969 176.90625 161.230469 C 175.535156 162.601562 174.410156 164.164062 173.601562 165.910156 C 173.414062 166.222656 172.914062 166.410156 172.601562 166.160156 M 179.027344 204.835938 C 180.273438 203.898438 181.460938 202.964844 182.707031 202.027344 C 182.394531 203.214844 182.085938 204.273438 181.773438 205.460938 C 181.335938 205.707031 181.023438 206.144531 180.585938 206.394531 C 180.148438 206.644531 179.527344 206.707031 179.214844 206.269531 C 178.964844 205.832031 179.652344 205.210938 179.902344 205.644531 C 179.652344 205.394531 179.339844 205.144531 179.027344 204.835938 M 226.5625 156.488281 C 226.4375 156.800781 226.3125 157.113281 226.4375 157.488281 C 225.5 157.664062 224.5625 157.851562 223.628906 158.050781 C 223.503906 158.425781 223.378906 158.796875 223.253906 159.171875 C 222.507812 159.109375 221.757812 159.109375 221.070312 159.109375 C 220.449219 158.796875 221.070312 157.925781 221.695312 157.613281 C 222.945312 156.988281 224.253906 156.613281 225.625 156.425781 C 225.4375 156.113281 225.25 155.867188 225.0625 155.554688 C 226.0625 154.742188 227.246094 154.183594 228.558594 153.808594 C 228.808594 154.246094 228.871094 154.742188 228.746094 155.242188 C 228.308594 155.429688 227.871094 155.492188 227.433594 155.367188 C 227.496094 155.679688 227.558594 155.992188 227.621094 156.363281 C 227.183594 156.488281 226.875 156.550781 226.5625 156.488281 M 177.78125 162.355469 C 178.277344 162.042969 178.964844 161.917969 179.527344 162.042969 C 179.277344 161.730469 179.089844 161.417969 178.902344 161.105469 C 179.527344 160.980469 180.148438 160.855469 180.835938 160.792969 C 181.085938 160.171875 181.085938 159.421875 180.835938 158.796875 C 181.523438 158.734375 182.269531 158.859375 182.894531 159.109375 C 183.082031 159.359375 183.144531 159.734375 183.082031 160.046875 C 182.769531 160.171875 182.394531 160.296875 182.023438 160.421875 C 181.898438 161.042969 181.710938 161.667969 181.585938 162.289062 C 181.273438 162.476562 180.773438 162.539062 180.398438 162.417969 C 179.839844 165.785156 176.160156 167.71875 174.847656 170.835938 C 174.410156 171.898438 173.976562 173.269531 172.851562 173.269531 C 172.539062 172.894531 172.601562 172.210938 173.039062 171.898438 C 172.601562 171.773438 172.226562 171.648438 171.851562 171.523438 C 171.792969 170.835938 172.914062 171.023438 173.476562 171.460938 C 173.976562 171.023438 173.539062 170.027344 172.914062 170.027344 C 173.601562 169.464844 174.035156 168.59375 174.160156 167.71875 C 174.847656 167.78125 175.535156 167.53125 175.972656 167.03125 C 175.472656 167.15625 174.910156 166.78125 174.785156 166.222656 C 175.785156 166.410156 176.78125 165.472656 176.71875 164.472656 L 178.964844 163.164062 C 178.652344 162.976562 178.214844 162.664062 177.78125 162.355469 M 373.71875 165.660156 C 372.34375 163.789062 370.910156 161.980469 369.164062 160.421875 C 366.730469 158.238281 363.613281 156.300781 363.113281 153.058594 C 377.773438 165.472656 389.0625 181.878906 395.363281 200.03125 C 395.925781 200.53125 395.300781 201.652344 394.617188 201.464844 C 389.125 188.804688 382.078125 176.703125 373.71875 165.660156 "/>
<path fill-rule="nonzero" fill="rgb(79.219055%, 85.099792%, 58.81958%)" fill-opacity="1" d="M 209.03125 155.804688 C 211.589844 153.746094 214.523438 151.8125 215.582031 148.691406 C 215.894531 147.820312 216.769531 147.132812 217.578125 146.632812 C 230.179688 138.710938 244.902344 134.34375 259.746094 134.09375 C 252.324219 136.089844 244.964844 138.023438 237.539062 140.019531 C 226 143.078125 217.515625 152.621094 209.71875 161.730469 C 202.980469 169.652344 196.183594 177.574219 189.445312 185.558594 C 188.632812 187.742188 187.886719 189.988281 187.074219 192.171875 C 186.761719 193.171875 186.386719 194.167969 185.515625 194.792969 C 184.703125 195.414062 183.332031 195.414062 182.832031 194.480469 C 185.828125 189.238281 188.820312 183.9375 191.878906 178.636719 C 196.742188 170.402344 201.609375 161.917969 209.03125 155.804688 "/>
<path fill-rule="nonzero" fill="rgb(79.219055%, 85.099792%, 58.81958%)" fill-opacity="1" d="M 512.972656 293.25 L 512.972656 258.980469 C 512.972656 253.175781 512.421875 249.066406 511.3125 246.644531 C 510.226562 244.207031 507.960938 242.984375 504.515625 242.984375 C 501.664062 242.984375 499.355469 243.765625 497.59375 245.324219 C 495.828125 246.859375 494.484375 248.851562 493.5625 251.292969 L 493.5625 293.25 L 477.167969 293.25 L 477.167969 230.25 L 489.902344 230.25 L 491.808594 238.554688 L 492.300781 238.554688 C 494.230469 235.871094 496.679688 233.519531 499.65625 231.511719 C 502.648438 229.5 506.492188 228.496094 511.191406 228.496094 C 515.230469 228.496094 518.53125 229.316406 521.09375 230.957031 C 523.660156 232.578125 525.648438 235.324219 527.0625 239.203125 C 529.011719 235.921875 531.492188 233.316406 534.507812 231.386719 C 537.542969 229.460938 541.191406 228.496094 545.457031 228.496094 C 549.007812 228.496094 552.011719 228.917969 554.472656 229.757812 C 556.953125 230.597656 558.972656 232.042969 560.53125 234.09375 C 562.089844 236.144531 563.238281 238.894531 563.976562 242.339844 C 564.734375 245.785156 565.113281 250.152344 565.113281 255.445312 L 565.113281 293.25 L 548.75 293.25 L 548.75 257.84375 C 548.75 252.878906 548.226562 249.167969 547.179688 246.707031 C 546.136719 244.226562 543.796875 242.984375 540.167969 242.984375 C 537.234375 242.984375 534.90625 243.785156 533.183594 245.386719 C 531.460938 246.964844 530.179688 249.148438 529.339844 251.9375 L 529.339844 293.25 Z M 575.226562 233.910156 C 578.589844 232.394531 582.582031 231.191406 587.195312 230.3125 C 591.828125 229.429688 596.660156 228.988281 601.683594 228.988281 C 606.050781 228.988281 609.703125 229.511719 612.632812 230.558594 C 615.585938 231.605469 617.925781 233.101562 619.648438 235.046875 C 621.371094 236.976562 622.589844 239.285156 623.308594 241.96875 C 624.027344 244.65625 624.386719 247.683594 624.386719 251.046875 C 624.386719 254.734375 624.253906 258.457031 623.984375 262.210938 C 623.738281 265.945312 623.597656 269.613281 623.554688 273.222656 C 623.515625 276.832031 623.617188 280.339844 623.863281 283.746094 C 624.128906 287.148438 624.765625 290.359375 625.769531 293.375 L 612.417969 293.375 L 609.742188 284.667969 L 609.128906 284.667969 C 607.445312 287.273438 605.109375 289.527344 602.113281 291.433594 C 599.140625 293.320312 595.304688 294.265625 590.609375 294.265625 C 587.675781 294.265625 585.03125 293.824219 582.671875 292.941406 C 580.3125 292.0625 578.292969 290.800781 576.613281 289.160156 C 574.929688 287.519531 573.628906 285.589844 572.707031 283.375 C 571.78125 281.140625 571.320312 278.636719 571.320312 275.871094 C 571.320312 271.992188 572.183594 268.734375 573.90625 266.085938 C 575.628906 263.441406 578.109375 261.308594 581.351562 259.6875 C 584.589844 258.046875 588.457031 256.910156 592.945312 256.273438 C 597.4375 255.640625 602.453125 255.445312 607.988281 255.691406 C 608.585938 250.992188 608.246094 247.621094 606.972656 245.570312 C 605.722656 243.5 602.914062 242.460938 598.546875 242.460938 C 595.265625 242.460938 591.796875 242.800781 588.148438 243.476562 C 584.496094 244.15625 581.492188 245.035156 579.136719 246.125 Z M 596.023438 280.761719 C 599.304688 280.761719 601.910156 280.03125 603.835938 278.578125 C 605.765625 277.101562 607.191406 275.519531 608.113281 273.839844 L 608.113281 265.65625 C 605.507812 265.410156 603.007812 265.371094 600.605469 265.535156 C 598.226562 265.699219 596.117188 266.078125 594.269531 266.671875 C 592.425781 267.246094 590.949219 268.085938 589.839844 269.195312 C 588.753906 270.28125 588.210938 271.664062 588.210938 273.347656 C 588.210938 275.707031 588.898438 277.53125 590.269531 278.824219 C 591.664062 280.113281 593.582031 280.761719 596.023438 280.761719 Z M 669.886719 245.628906 C 667.28125 244.707031 664.933594 244.246094 662.839844 244.246094 C 659.886719 244.246094 657.425781 245.027344 655.457031 246.585938 C 653.488281 248.121094 652.167969 250.113281 651.488281 252.550781 L 651.488281 293.25 L 635.09375 293.25 L 635.09375 230.25 L 647.828125 230.25 L 649.734375 238.554688 L 650.226562 238.554688 C 651.664062 235.457031 653.589844 233.070312 656.011719 231.386719 C 658.453125 229.707031 661.3125 228.867188 664.59375 228.867188 C 666.769531 228.867188 669.25 229.328125 672.039062 230.25 Z M 677.734375 230.25 L 694.101562 230.25 L 694.101562 293.25 L 677.734375 293.25 Z M 675.335938 212.46875 C 675.335938 210.050781 676.238281 207.980469 678.042969 206.253906 C 679.847656 204.53125 682.347656 203.671875 685.546875 203.671875 C 688.726562 203.671875 691.300781 204.53125 693.269531 206.253906 C 695.257812 207.980469 696.253906 210.050781 696.253906 212.46875 C 696.253906 214.910156 695.257812 216.949219 693.269531 218.589844 C 691.300781 220.230469 688.726562 221.050781 685.546875 221.050781 C 682.347656 221.050781 679.847656 220.230469 678.042969 218.589844 C 676.238281 216.949219 675.335938 214.910156 675.335938 212.46875 Z M 743.019531 293.25 L 743.019531 258.980469 C 743.019531 253.175781 742.464844 249.066406 741.359375 246.644531 C 740.273438 244.207031 738.003906 242.984375 734.558594 242.984375 C 731.710938 242.984375 729.402344 243.765625 727.640625 245.324219 C 725.875 246.859375 724.53125 248.851562 723.609375 251.292969 L 723.609375 293.25 L 707.214844 293.25 L 707.214844 230.25 L 719.949219 230.25 L 721.855469 238.554688 L 722.347656 238.554688 C 724.277344 235.871094 726.726562 233.519531 729.699219 231.511719 C 732.695312 229.5 736.539062 228.496094 741.234375 228.496094 C 745.277344 228.496094 748.578125 229.316406 751.140625 230.957031 C 753.703125 232.578125 755.695312 235.324219 757.109375 239.203125 C 759.058594 235.921875 761.539062 233.316406 764.554688 231.386719 C 767.589844 229.460938 771.238281 228.496094 775.503906 228.496094 C 779.050781 228.496094 782.054688 228.917969 784.515625 229.757812 C 787 230.597656 789.019531 232.042969 790.578125 234.09375 C 792.136719 236.144531 793.285156 238.894531 794.023438 242.339844 C 794.78125 245.785156 795.160156 250.152344 795.160156 255.445312 L 795.160156 293.25 L 778.796875 293.25 L 778.796875 257.84375 C 778.796875 252.878906 778.273438 249.167969 777.226562 246.707031 C 776.179688 244.226562 773.84375 242.984375 770.214844 242.984375 C 767.28125 242.984375 764.953125 243.785156 763.230469 245.386719 C 761.507812 246.964844 760.226562 249.148438 759.386719 251.9375 L 759.386719 293.25 Z M 802.628906 261.75 C 802.628906 251.085938 805.234375 242.882812 810.441406 237.140625 C 815.652344 231.378906 822.960938 228.496094 832.375 228.496094 C 837.421875 228.496094 841.789062 229.296875 845.480469 230.894531 C 849.171875 232.476562 852.238281 234.71875 854.675781 237.632812 C 857.117188 240.523438 858.941406 244.03125 860.152344 248.152344 C 861.363281 252.253906 861.96875 256.785156 861.96875 261.75 C 861.96875 272.414062 859.382812 280.628906 854.214844 286.390625 C 849.070312 292.132812 841.789062 295.003906 832.375 295.003906 C 827.332031 295.003906 822.960938 294.214844 819.269531 292.636719 C 815.578125 291.035156 812.492188 288.789062 810.011719 285.898438 C 807.53125 282.984375 805.675781 279.480469 804.445312 275.378906 C 803.234375 271.253906 802.628906 266.714844 802.628906 261.75 Z M 819.515625 261.75 C 819.515625 264.519531 819.761719 267.082031 820.253906 269.441406 C 820.769531 271.796875 821.527344 273.859375 822.53125 275.625 C 823.535156 277.386719 824.859375 278.75 826.5 279.714844 C 828.140625 280.679688 830.097656 281.160156 832.375 281.160156 C 836.660156 281.160156 839.851562 279.613281 841.941406 276.515625 C 844.054688 273.398438 845.109375 268.476562 845.109375 261.75 C 845.109375 255.945312 844.136719 251.261719 842.1875 247.691406 C 840.261719 244.125 836.988281 242.339844 832.375 242.339844 C 828.335938 242.339844 825.175781 243.855469 822.902344 246.890625 C 820.644531 249.90625 819.515625 254.859375 819.515625 261.75 Z M 819.515625 261.75 "/>
<path fill-rule="nonzero" fill="rgb(16.468811%, 58.81958%, 94.898987%)" fill-opacity="1" d="M 955.179688 288.203125 C 952.675781 290.214844 949.507812 291.8125 945.671875 293.003906 C 941.859375 294.171875 937.808594 294.757812 933.523438 294.757812 C 928.722656 294.757812 924.5625 293.988281 921.03125 292.449219 C 917.503906 290.890625 914.605469 288.667969 912.328125 285.773438 C 910.070312 282.863281 908.398438 279.398438 907.3125 275.378906 C 906.226562 271.335938 905.683594 266.796875 905.683594 261.75 C 905.683594 251.003906 908.070312 242.820312 912.851562 237.203125 C 917.648438 231.5625 924.5 228.742188 933.398438 228.742188 C 936.25 228.742188 939.101562 229.0625 941.953125 229.695312 C 944.824219 230.3125 947.386719 231.5 949.640625 233.265625 C 951.917969 235.027344 953.765625 237.53125 955.179688 240.769531 C 956.613281 244.011719 957.332031 248.277344 957.332031 253.566406 C 957.332031 256.335938 957.074219 259.402344 956.5625 262.765625 L 916.140625 262.765625 C 916.140625 266.457031 916.511719 269.738281 917.25 272.609375 C 918.007812 275.460938 919.1875 277.871094 920.785156 279.839844 C 922.386719 281.808594 924.46875 283.3125 927.03125 284.359375 C 929.59375 285.40625 932.722656 285.929688 936.414062 285.929688 C 939.265625 285.929688 942.113281 285.425781 944.964844 284.421875 C 947.835938 283.417969 949.988281 282.246094 951.425781 280.914062 Z M 933.523438 237.570312 C 928.558594 237.570312 924.582031 238.875 921.585938 241.476562 C 918.613281 244.082031 916.839844 248.53125 916.265625 254.828125 L 947.519531 254.828125 C 947.519531 248.429688 946.296875 243.960938 943.859375 241.417969 C 941.417969 238.851562 937.972656 237.570312 933.523438 237.570312 Z M 983.820312 260.980469 L 962.65625 230.25 L 974.992188 230.25 L 986.957031 247.628906 L 990.496094 254.828125 L 994.15625 247.628906 L 1006.367188 230.25 L 1017.71875 230.25 L 996.429688 260.488281 L 1018.980469 293.25 L 1007.011719 293.25 L 993.632812 274.085938 L 989.878906 266.546875 L 985.972656 274.085938 L 972.34375 293.25 L 961.148438 293.25 Z M 1029.191406 230.25 L 1036.140625 230.25 L 1038.019531 237.816406 L 1038.511719 237.816406 C 1040.457031 234.863281 1042.960938 232.617188 1046.015625 231.082031 C 1049.09375 229.523438 1052.597656 228.742188 1056.535156 228.742188 C 1064.945312 228.742188 1071.199219 231.222656 1075.300781 236.1875 C 1079.421875 241.128906 1081.484375 249.230469 1081.484375 260.488281 C 1081.484375 265.78125 1080.789062 270.546875 1079.394531 274.792969 C 1078.019531 279.039062 1076.070312 282.636719 1073.546875 285.589844 C 1071.027344 288.523438 1067.980469 290.789062 1064.410156 292.390625 C 1060.84375 293.96875 1056.875 294.757812 1052.507812 294.757812 C 1049.410156 294.757812 1046.949219 294.5625 1045.125 294.171875 C 1043.320312 293.804688 1041.371094 293.15625 1039.28125 292.234375 L 1039.28125 318.445312 L 1029.191406 318.445312 Z M 1054.660156 237.570312 C 1050.375 237.570312 1046.992188 238.6875 1044.507812 240.925781 C 1042.027344 243.140625 1040.285156 246.511719 1039.28125 251.046875 L 1039.28125 282.296875 C 1040.796875 283.46875 1042.519531 284.371094 1044.449219 285.003906 C 1046.375 285.621094 1048.9375 285.929688 1052.136719 285.929688 C 1057.921875 285.929688 1062.515625 283.777344 1065.917969 279.46875 C 1069.324219 275.140625 1071.027344 268.773438 1071.027344 260.367188 C 1071.027344 256.921875 1070.726562 253.792969 1070.132812 250.984375 C 1069.558594 248.171875 1068.617188 245.785156 1067.304688 243.816406 C 1066.011719 241.828125 1064.328125 240.289062 1062.257812 239.203125 C 1060.207031 238.113281 1057.675781 237.570312 1054.660156 237.570312 Z M 1090.847656 261.75 C 1090.847656 251.085938 1093.21875 242.921875 1097.953125 237.265625 C 1102.710938 231.582031 1109.542969 228.742188 1118.441406 228.742188 C 1123.136719 228.742188 1127.230469 229.523438 1130.714844 231.082031 C 1134.203125 232.617188 1137.074219 234.84375 1139.328125 237.753906 C 1141.605469 240.648438 1143.289062 244.132812 1144.375 248.214844 C 1145.480469 252.277344 1146.035156 256.785156 1146.035156 261.75 C 1146.035156 272.414062 1143.65625 280.585938 1138.898438 286.265625 C 1134.160156 291.925781 1127.34375 294.757812 1118.441406 294.757812 C 1113.726562 294.757812 1109.625 293.988281 1106.136719 292.449219 C 1102.652344 290.890625 1099.769531 288.667969 1097.492188 285.773438 C 1095.238281 282.863281 1093.566406 279.375 1092.480469 275.316406 C 1091.390625 271.234375 1090.847656 266.714844 1090.847656 261.75 Z M 1101.308594 261.75 C 1101.308594 264.949219 1101.617188 268.015625 1102.230469 270.949219 C 1102.867188 273.878906 1103.851562 276.445312 1105.183594 278.636719 C 1106.539062 280.8125 1108.300781 282.574219 1110.476562 283.929688 C 1112.667969 285.261719 1115.324219 285.929688 1118.441406 285.929688 C 1129.863281 286.03125 1135.578125 277.972656 1135.578125 261.75 C 1135.578125 258.46875 1135.257812 255.363281 1134.621094 252.429688 C 1133.988281 249.496094 1132.992188 246.941406 1131.640625 244.769531 C 1130.304688 242.574219 1128.542969 240.832031 1126.347656 239.539062 C 1124.175781 238.226562 1121.539062 237.570312 1118.441406 237.570312 C 1107.019531 237.46875 1101.308594 245.527344 1101.308594 261.75 Z M 1188.636719 239.941406 C 1186.117188 239.097656 1183.726562 238.679688 1181.472656 238.679688 C 1177.839844 238.679688 1174.980469 239.671875 1172.886719 241.664062 C 1170.796875 243.632812 1169.496094 246.125 1168.980469 249.136719 L 1168.980469 293.25 L 1158.890625 293.25 L 1158.890625 230.25 L 1165.96875 230.25 L 1167.84375 237.941406 L 1168.367188 237.941406 C 1169.945312 235.089844 1171.851562 232.886719 1174.089844 231.328125 C 1176.324219 229.769531 1179.152344 228.988281 1182.578125 228.988281 C 1185.019531 228.988281 1187.757812 229.410156 1190.792969 230.25 Z M 1194.207031 230.25 L 1204.050781 230.25 L 1204.050781 217.792969 L 1214.109375 214.871094 L 1214.109375 230.25 L 1231.242188 230.25 L 1231.242188 239.078125 L 1214.109375 239.078125 L 1214.109375 273.960938 C 1214.109375 278.332031 1214.652344 281.417969 1215.738281 283.222656 C 1216.847656 285.027344 1218.703125 285.929688 1221.308594 285.929688 C 1223.480469 285.929688 1225.328125 285.703125 1226.84375 285.25 C 1228.363281 284.78125 1230.042969 284.175781 1231.890625 283.4375 L 1234.136719 291.097656 C 1231.878906 292.203125 1229.40625 293.085938 1226.722656 293.742188 C 1224.035156 294.417969 1221.132812 294.757812 1218.015625 294.757812 C 1212.890625 294.757812 1209.28125 293.3125 1207.1875 290.421875 C 1205.097656 287.527344 1204.050781 282.679688 1204.050781 275.871094 L 1204.050781 239.078125 L 1194.207031 239.078125 Z M 1194.207031 230.25 "/>
<path fill-rule="nonzero" fill="rgb(96.859741%, 98.039246%, 97.24884%)" fill-opacity="1" d="M 867.945312 252.304688 L 898.429688 252.304688 L 898.429688 261.625 L 867.945312 261.625 Z M 867.945312 252.304688 "/>
<path fill-rule="nonzero" fill="rgb(79.219055%, 85.099792%, 58.81958%)" fill-opacity="1" d="M 275.226562 208.820312 C 275.226562 213.851562 270.851562 218.007812 265.820312 218.007812 L 241.757812 218.007812 C 236.945312 217.789062 232.789062 213.851562 232.789062 208.820312 L 232.789062 185.195312 C 232.789062 180.382812 236.945312 176.007812 241.757812 176.007812 L 266.257812 176.007812 C 271.289062 175.789062 275.226562 179.945312 275.226562 184.757812 Z M 275.226562 208.820312 "/>
<path fill-rule="nonzero" fill="rgb(79.219055%, 85.099792%, 58.81958%)" fill-opacity="1" d="M 324.226562 257.382812 C 324.226562 262.195312 320.070312 266.570312 315.039062 266.570312 L 290.976562 266.570312 C 285.945312 266.570312 281.789062 262.414062 281.789062 257.382812 L 281.789062 233.539062 C 281.789062 228.726562 285.945312 224.570312 290.757812 224.570312 L 315.257812 224.570312 C 320.070312 224.351562 324.226562 228.726562 324.226562 233.320312 Z M 324.226562 257.382812 "/>
<path fill-rule="nonzero" fill="rgb(79.219055%, 85.099792%, 58.81958%)" fill-opacity="1" d="M 275.226562 257.8125 C 275.226562 262.625 271.507812 266.5625 266.476562 267 L 241.757812 267 C 236.945312 267.21875 232.789062 263.28125 232.789062 258.90625 L 232.789062 233.75 C 232.789062 229.15625 236.507812 224.5625 241.757812 224.5625 L 265.820312 224.5625 C 270.851562 224.5625 275.226562 228.5 275.226562 234.40625 Z M 275.226562 257.8125 "/>
<path fill-rule="nonzero" fill="rgb(79.219055%, 85.099792%, 58.81958%)" fill-opacity="1" d="M 275.226562 306.53125 C 275.226562 311.34375 271.289062 315.9375 266.257812 315.9375 L 241.539062 315.9375 C 236.945312 316.15625 232.789062 312.21875 232.789062 308.0625 L 232.789062 281.8125 C 233.007812 277.65625 236.507812 273.5 241.539062 273.5 L 266.039062 273.5 C 270.851562 273.5 275.226562 277.4375 275.226562 283.125 Z M 275.226562 306.53125 "/>
<path fill-rule="nonzero" fill="rgb(79.219055%, 85.099792%, 58.81958%)" fill-opacity="1" d="M 324.226562 306.28125 C 324.226562 311.09375 320.289062 315.6875 315.039062 315.90625 L 289.882812 315.90625 C 285.945312 315.90625 281.789062 312.40625 281.789062 306.9375 L 281.789062 282.875 C 281.789062 277.84375 285.945312 273.25 291.414062 273.25 L 314.820312 273.25 C 319.414062 273.25 324.226562 277.1875 324.226562 282.65625 Z M 324.226562 306.28125 "/>
<g clip-path="url(#clip-0)">
<path fill-rule="nonzero" fill="rgb(79.219055%, 85.099792%, 58.81958%)" fill-opacity="1" d="M 315.257812 218.78125 L 290.539062 218.78125 C 289.273438 218.78125 288.058594 218.546875 286.886719 218.074219 C 285.757812 217.617188 284.75 216.972656 283.871094 216.140625 C 282.980469 215.304688 282.285156 214.34375 281.792969 213.257812 C 281.269531 212.117188 281.011719 210.929688 281.011719 209.695312 L 281.011719 185.195312 C 281.011719 183.921875 281.25 182.6875 281.726562 181.484375 C 282.199219 180.300781 282.863281 179.242188 283.726562 178.316406 C 284.617188 177.355469 285.644531 176.609375 286.8125 176.078125 C 288.054688 175.511719 289.371094 175.230469 290.757812 175.230469 L 315.257812 175.230469 C 316.484375 175.230469 317.671875 175.472656 318.8125 175.960938 C 319.925781 176.433594 320.914062 177.101562 321.773438 177.964844 C 322.648438 178.839844 323.328125 179.847656 323.808594 180.988281 C 324.3125 182.179688 324.566406 183.4375 324.566406 184.757812 L 324.566406 209.695312 C 324.566406 210.96875 324.320312 212.175781 323.835938 213.308594 C 323.367188 214.414062 322.695312 215.378906 321.828125 216.210938 C 320.972656 217.035156 319.984375 217.664062 318.859375 218.109375 C 317.71875 218.558594 316.519531 218.78125 315.257812 218.78125 Z M 315.257812 215.042969 C 316.046875 215.042969 316.789062 214.902344 317.484375 214.628906 C 318.152344 214.367188 318.738281 213.992188 319.238281 213.511719 C 319.738281 213.03125 320.125 212.476562 320.398438 211.839844 C 320.679688 211.171875 320.824219 210.457031 320.824219 209.695312 L 320.824219 184.757812 C 320.824219 183.941406 320.667969 183.171875 320.363281 182.441406 C 320.070312 181.75 319.660156 181.140625 319.128906 180.609375 C 318.609375 180.089844 318.015625 179.6875 317.347656 179.402344 C 316.671875 179.113281 315.976562 178.96875 315.257812 178.96875 L 290.757812 178.96875 C 289.910156 178.96875 289.113281 179.140625 288.363281 179.484375 C 287.652344 179.808594 287.019531 180.265625 286.46875 180.859375 C 285.925781 181.445312 285.503906 182.117188 285.203125 182.867188 C 284.902344 183.625 284.753906 184.398438 284.753906 185.195312 L 284.753906 209.695312 C 284.753906 210.386719 284.898438 211.058594 285.195312 211.707031 C 285.488281 212.34375 285.898438 212.914062 286.433594 213.417969 C 286.976562 213.925781 287.59375 214.324219 288.289062 214.605469 C 289.011719 214.894531 289.761719 215.042969 290.539062 215.042969 Z M 315.257812 215.042969 "/>
</g>
<path fill-rule="nonzero" fill="rgb(16.468811%, 58.81958%, 94.898987%)" fill-opacity="1" d="M 332.539062 244.28125 L 370.382812 244.28125 C 370.917969 244.28125 371.371094 244.472656 371.75 244.851562 C 372.128906 245.226562 372.316406 245.683594 372.316406 246.21875 C 372.316406 246.753906 372.128906 247.210938 371.75 247.585938 C 371.371094 247.964844 370.917969 248.15625 370.382812 248.15625 L 332.539062 248.15625 C 332.003906 248.15625 331.546875 247.964844 331.167969 247.585938 C 330.792969 247.210938 330.601562 246.753906 330.601562 246.21875 C 330.601562 245.683594 330.792969 245.226562 331.167969 244.851562 C 331.546875 244.472656 332.003906 244.28125 332.539062 244.28125 Z M 332.539062 244.28125 "/>
<path fill-rule="nonzero" fill="rgb(16.468811%, 58.81958%, 94.898987%)" fill-opacity="1" d="M 355.507812 258.03125 C 354.851562 258.03125 354.195312 257.59375 354.414062 256.9375 C 354.632812 256.28125 354.414062 255.40625 355.070312 254.75 L 367.101562 246.875 L 355.726562 239.21875 C 354.851562 238.78125 354.632812 237.6875 355.070312 235.0625 C 355.507812 232.4375 357.476562 233.75 358.132812 234.1875 L 372.351562 244.46875 C 373.007812 244.90625 373.445312 245.34375 373.226562 246.875 C 373.226562 247.53125 373.007812 247.53125 372.351562 247.75 L 357.914062 256.9375 C 357.039062 257.59375 356.382812 258.25 355.507812 258.03125 Z M 355.507812 258.03125 "/>
</svg>
